# xmcd
#
# Track frame offsets:
#	150
#	20016
#	36338
#	53139
#	70001
#	85533
#	106543
#	127555
#	143971
#	163874
#	180589
#	196226
#	215043
#	235828
#	252927
#	269470
#	287919
#	303950
#
# Disc length: 4297
#
# Revision: 4
# Processed by: cddbd v1.5.2PL0 Copyright (c) Steve Scherf et al.
# Submitted via: kJams Pro (development) 1.0patch52.13
#
DISCID=f810c712
DTITLE=Various Artist - SF–306
DYEAR=2011
DGENRE=kJams
TTITLE0=Adele - Turning Tables
TTITLE1=Nicki Minaj - Super Bass
TTITLE2=Loick Essien ft Tanya Lacey - How We Roll
TTITLE3=DJ Fresh ft Sian Evans - Louder
TTITLE4=Cher Lloyd - Swagger Jagger
TTITLE5=LMFAO ft Natalia Kills - Champagne Showers
TTITLE6=Chris Brown ft Justin Bieber - Next To You
TTITLE7=Example - Stay Awake
TTITLE8=Nero - Promises
TTITLE9=JLS ft Dev - She Makes Me Wanna
TTITLE10=Chase and Status ft Tinie Tempah - Hitz
TTITLE11=Jessie J - Who's Laughing Now
TTITLE12=Chipmunk ft Trey Songz - Take Off
TTITLE13=Tinie Tempah ft Wiz Khalifa - Till I'm Gone
TTITLE14=Aloe Blacc - Loving You Is Killing Me
TTITLE15=Bruno Mars - Marry You
TTITLE16=Six D - Best Damn Night
TTITLE17=Dev - In The Dark
EXTD=YEAR: 2011
EXTT0=
EXTT1=
EXTT2=
EXTT3=
EXTT4=
EXTT5=
EXTT6=
EXTT7=
EXTT8=
EXTT9=
EXTT10=
EXTT11=
EXTT12=
EXTT13=
EXTT14=
EXTT15=
EXTT16=
EXTT17=
PLAYORDER=
